<?xml version="1.0" encoding="UTF-8"?>
<svg xmlns="http://www.w3.org/2000/svg" id="Layer_1" data-name="Layer 1" viewBox="0 0 24 24">
  <path d="m19.475,2.025h-1.5V.525c0-.276-.224-.5-.5-.5s-.5.224-.5.5v1.5H6.975V.525c0-.276-.224-.5-.5-.5s-.5.224-.5.5v1.5h-1.5C1.993,2.025-.025,4.044-.025,6.525v13c0,2.481,2.019,4.5,4.5,4.5h8c.276,0,.5-.224.5-.5s-.224-.5-.5-.5H4.475c-1.93,0-3.5-1.57-3.5-3.5v-10.5h22v2.5c0,.276.224.5.5.5s.5-.224.5-.5v-5c0-2.481-2.019-4.5-4.5-4.5ZM.975,8.025v-1.5c0-1.93,1.57-3.5,3.5-3.5h15c1.93,0,3.5,1.57,3.5,3.5v1.5H.975Zm22.061,7.365c-.615-1.95-2.533-3.365-4.561-3.365-2.157,0-4.087,1.551-4.592,3.693l-.869,3.914c-.12.582.026,1.181.403,1.644.386.476.962.749,1.581.749h1.141c.181,1.131,1.156,2,2.337,2s2.156-.869,2.337-2h1.137c.619,0,1.196-.273,1.582-.75.376-.465.522-1.065.4-1.648l-.895-4.237Zm-4.561,7.635c-.627,0-1.152-.425-1.316-1h2.633c-.164.575-.689,1-1.316,1Zm4.278-2.379c-.195.241-.488.379-.804.379h-6.952c-.316,0-.609-.138-.804-.379-.186-.229-.259-.524-.201-.804l.866-3.901c.398-1.69,1.919-2.917,3.617-2.917,1.603,0,3.12,1.121,3.595,2.619l.883,4.189c.06.287-.012.583-.199.813Z"/>
</svg>
